<?xml version="1.0" encoding="UTF-8" standalone="no"?>
<svg
   xmlns:dc="http://purl.org/dc/elements/1.1/"
   xmlns:cc="http://creativecommons.org/ns#"
   xmlns:rdf="http://www.w3.org/1999/02/22-rdf-syntax-ns#"
   xmlns:svg="http://www.w3.org/2000/svg"
   xmlns="http://www.w3.org/2000/svg"
   xmlns:sodipodi="http://sodipodi.sourceforge.net/DTD/sodipodi-0.dtd"
   xmlns:inkscape="http://www.inkscape.org/namespaces/inkscape"
   width="100%"
   height="100%"
   viewBox="0 0 564 389"
   version="1.1"
   xml:space="preserve"
   style="fill-rule:evenodd;clip-rule:evenodd;stroke-linejoin:round;stroke-miterlimit:2;"
   id="svg64"
   sodipodi:docname="menu.svg"
   inkscape:export-filename="D:\1projet jeu\gamejams\gamejam2020\gwhack-a-mole\src\assets\hud\schema.png"
   inkscape:export-xdpi="6.9100256"
   inkscape:export-ydpi="6.9100256"
   inkscape:version="0.92.4 (5da689c313, 2019-01-14)"><metadata
   id="metadata70"><rdf:RDF><cc:Work
       rdf:about=""><dc:format>image/svg+xml</dc:format><dc:type
         rdf:resource="http://purl.org/dc/dcmitype/StillImage" /></cc:Work></rdf:RDF></metadata><defs
   id="defs68" /><sodipodi:namedview
   pagecolor="#ffffff"
   bordercolor="#666666"
   borderopacity="1"
   objecttolerance="10"
   gridtolerance="10"
   guidetolerance="10"
   inkscape:pageopacity="0"
   inkscape:pageshadow="2"
   inkscape:window-width="1366"
   inkscape:window-height="705"
   id="namedview66"
   showgrid="false"
   inkscape:zoom="1.0177305"
   inkscape:cx="292.80999"
   inkscape:cy="271.67624"
   inkscape:window-x="-8"
   inkscape:window-y="-8"
   inkscape:window-maximized="1"
   inkscape:current-layer="svg64" />
    <g
   transform="matrix(1,0,0,1,-349,-140)"
   id="g62">
        <g
   transform="matrix(1,0,0,0.951056,-1186,35.1891)"
   id="g6">
            <g
   transform="matrix(1.29655,0,0,1.59151,1258.83,-344.968)"
   id="g4">
                <rect
   x="213"
   y="286"
   width="435"
   height="257"
   style="fill:rgb(255, 216, 0);opacity:0"
   id="rect2" />
            </g>
        </g>
        <g
   transform="matrix(1,0,0,0.951056,-1186,35.1891)"
   id="g30">
            <g
   transform="matrix(0.524749,0,0,0.551754,1483.97,202.09)"
   id="g10">
                <circle
   cx="637.5"
   cy="398.5"
   r="24.5"
   style="fill:rgb(234,31,0);"
   id="circle8" />
            </g>
            <g
   id="g28">
                <g
   transform="matrix(1,0,0,1.05146,1018,-283.042)"
   id="g14">
                    <path
   d="M552.117,763L517,763L600.5,656L684,763L648.883,763L600.5,701L552.117,763Z"
   style="fill:rgb(0,137,46);"
   id="path12" />
                </g>
                <g
   transform="matrix(1,0,0,1.05146,1150,-283.042)"
   id="g18">
                    <path
   d="M552.117,763L517,763L600.5,656L684,763L648.883,763L600.5,701L552.117,763Z"
   style="fill:rgb(0,137,46);"
   id="path16" />
                </g>
                <g
   transform="matrix(1,0,0,1.05146,1282,-283.042)"
   id="g22">
                    <path
   d="M552.117,763L517,763L600.5,656L684,763L648.883,763L600.5,701L552.117,763Z"
   style="fill:rgb(0,137,46);"
   id="path20" />
                </g>
                <g
   transform="matrix(1,0,0,1.05146,1415,-283.042)"
   id="g26">
                    <path
   d="M552.117,763L517,763L600.5,656L684,763L648.883,763L600.5,701L552.117,763Z"
   style="fill:rgb(0,137,46);"
   id="path24" />
                <path
   id="path884"
   style="fill:#00892e"
   d="m 684,763 h -35.117 l 83.5,-107 83.5,107 h -35.117 l -48.383,-62 z"
   inkscape:connector-curvature="0" /></g>
            </g>
        </g>
        <g
   transform="matrix(1,0,0,0.951056,-1186,35.1891)"
   id="g60">
            <g
   transform="matrix(-1,-1.28767e-16,1.16471e-16,-1,3634,629.429)"
   id="g58">
                <g
   transform="matrix(0.524749,0,0,0.551754,1614.62,202.09)"
   id="g34">
                    <circle
   cx="637.5"
   cy="398.5"
   r="24.5"
   style="fill:rgb(234,31,0);"
   id="circle32" />
                </g>
                <g
   transform="matrix(0.524749,0,0,0.551754,1349.62,202.09)"
   id="g38">
                    <circle
   cx="637.5"
   cy="398.5"
   r="24.5"
   style="fill:rgb(234,31,0);"
   id="circle36" />
                </g>
                <g
   id="g56">
                    <g
   transform="matrix(1,0,0,1.05146,1018,-283.042)"
   id="g42">
                        <path
   d="M552.117,763L517,763L600.5,656L684,763L648.883,763L600.5,701L552.117,763Z"
   style="fill:rgb(0,137,46);"
   id="path40" />
                    <path
   id="path880"
   style="fill:#00892e"
   d="m 420.2396,763.00301 h -35.117 l 83.5,-107 83.5,107 h -35.117 l -48.383,-62 z"
   inkscape:connector-curvature="0" /><path
   inkscape:connector-curvature="0"
   d="m 420.2396,763.00301 h -35.117 l 83.5,-107 83.5,107 h -35.117 l -48.383,-62 z"
   style="fill:#00892e"
   id="path882" /></g>
                    <g
   transform="matrix(1,0,0,1.05146,1150,-283.042)"
   id="g46">
                        <path
   d="M552.117,763L517,763L600.5,656L684,763L648.883,763L600.5,701L552.117,763Z"
   style="fill:rgb(0,137,46);"
   id="path44" />
                    </g>
                    <g
   transform="matrix(1,0,0,1.05146,1282,-283.042)"
   id="g50">
                        <path
   d="M552.117,763L517,763L600.5,656L684,763L648.883,763L600.5,701L552.117,763Z"
   style="fill:rgb(0,137,46);"
   id="path48" />
                    </g>
                    <g
   transform="matrix(1,0,0,1.05146,1415,-283.042)"
   id="g54">
                        <path
   d="M552.117,763L517,763L600.5,656L684,763L648.883,763L600.5,701L552.117,763Z"
   style="fill:rgb(0,137,46);"
   id="path52" />
                    </g>
                </g>
            </g>
        </g>
    </g>
</svg>