<?xml version="1.0" encoding="UTF-8" standalone="no"?>
<!DOCTYPE svg PUBLIC "-//W3C//DTD SVG 1.1//EN" "http://www.w3.org/Graphics/SVG/1.1/DTD/svg11.dtd">
<svg width="100%" height="100%" viewBox="0 0 297 255" version="1.1" xmlns="http://www.w3.org/2000/svg" xmlns:xlink="http://www.w3.org/1999/xlink" xml:space="preserve" xmlns:serif="http://www.serif.com/" style="fill-rule:evenodd;clip-rule:evenodd;stroke-linejoin:round;stroke-miterlimit:2;">
    <g transform="matrix(1,0,0,1,-617,-387.468)">
        <g id="Citron" transform="matrix(0.495052,-0.155937,-0.172045,0.317108,703.129,339.154)">
            <g transform="matrix(2.43635,1.19807,1.32182,3.8035,-2161.37,-2132.37)">
                <path d="M803,554C789.859,563.177 738.904,591.493 719,573C713.176,565.907 711.704,560.02 712.584,550.977C718.791,496.489 725.039,480.878 744,465C746.249,463.611 747.459,450.81 760,457C801.865,451.808 822.114,474.694 840,488C864.815,508.932 819.379,544.409 803,554Z" style="fill:rgb(36,158,77);"/>
                <clipPath id="_clip1">
                    <path d="M803,554C789.859,563.177 738.904,591.493 719,573C713.176,565.907 711.704,560.02 712.584,550.977C718.791,496.489 725.039,480.878 744,465C746.249,463.611 747.459,450.81 760,457C801.865,451.808 822.114,474.694 840,488C864.815,508.932 819.379,544.409 803,554Z"/>
                </clipPath>
                <g clip-path="url(#_clip1)">
                    <path d="M707.121,472.033C707.121,472.033 700.104,492.803 776.727,493.645C798.9,496.451 785.989,496.451 774.482,503.187C758.203,513.572 711.05,539.457 713.296,566.9C715.541,594.343 762.974,597.43 762.974,597.43C762.974,597.43 829.213,569.643 834.265,566.275C839.317,562.907 865.42,516.316 865.42,512.948C865.42,509.58 865.7,472.531 856.157,466.637C846.615,460.743 832.02,456.533 815.46,448.113C798.9,439.693 782.06,437.166 773.359,436.605C764.658,436.044 717.786,452.042 717.786,452.042L707.121,472.033Z" style="fill:rgb(47,132,75);"/>
                </g>
            </g>
            <g transform="matrix(1,0,0,1,59,-34)">
                <circle cx="389" cy="868" r="121" style="fill:rgb(203,255,221);"/>
            </g>
            <g transform="matrix(1,0,0,1,-1.52471,0.0368483)">
                <path d="M448,826C437.074,810.5 408.585,746.532 405.525,731.963C414.831,722.92 470.593,714.681 491.525,730.963C496.225,729.138 458.792,818.93 448,826Z" style="fill:rgb(116,231,157);"/>
            </g>
            <g transform="matrix(-0.933967,-0.35736,0.35736,-0.933967,568.361,1773.55)">
                <path d="M448,826C437.074,810.5 415.585,744.096 412.525,729.527C421.831,720.484 468.122,715.193 489.054,731.475C481.42,741.984 458.792,818.93 448,826Z" style="fill:rgb(116,231,157);"/>
            </g>
            <g transform="matrix(0.67568,0.737195,-0.737195,0.67568,761.219,-59.0377)">
                <path d="M448,826C440.712,820.526 411.724,742.561 412.525,729.527C413.092,720.282 488.655,720.402 492.589,733.932C484.955,744.442 458.792,818.93 448,826Z" style="fill:rgb(116,231,157);"/>
            </g>
            <g transform="matrix(-0.253348,-0.967375,0.967375,-0.253348,-244.426,1480.42)">
                <path d="M448,826C442.211,807.765 394.078,737.051 404.942,732.928C414.248,723.885 468.908,716.139 489.84,732.421C481.71,743.73 457.717,815.248 448,826Z" style="fill:rgb(116,231,157);"/>
            </g>
            <g transform="matrix(-0.14549,0.98936,-0.98936,-0.14549,1338.37,514.004)">
                <path d="M447.644,824.005C436.718,808.505 400.592,730.86 406.528,729.987C415.834,720.944 468.122,715.193 489.054,731.475C481.42,741.984 458.436,816.935 447.644,824.005Z" style="fill:rgb(116,231,157);"/>
            </g>
            <g transform="matrix(0.571597,-0.820534,0.820534,0.571597,-492.202,724.352)">
                <path d="M448,826C428.769,801.454 402.355,744.093 407.831,731.995C417.137,722.952 468.122,715.193 489.054,731.475C504.236,733.306 460.391,803.386 448,826Z" style="fill:rgb(116,231,157);"/>
            </g>
            <g transform="matrix(-0.864703,0.502283,-0.502283,-0.864703,1253.37,1330.22)">
                <path d="M447.496,821.081C436.57,805.581 397.918,735.565 404.941,735.069C401.959,728.322 463.998,707.624 489.054,731.475C492.087,734.362 458.288,814.011 447.496,821.081Z" style="fill:rgb(116,231,157);"/>
            </g>
            <g transform="matrix(2.43635,1.19807,1.32182,3.8035,-2161.37,-2132.37)">
                <path d="M817,487C817,487 845.678,434.882 851,427C851.799,434.33 844.912,439.503 850,440C842,441 816.737,487.044 817,487Z" style="fill:rgb(203,255,221);"/>
            </g>
            <g transform="matrix(2.43635,1.19807,1.32182,3.8035,-2161.37,-2132.37)">
                <path d="M886,400C886,400 894.153,384.429 896,388C894.558,393.627 897.965,395.728 894,394C890.035,392.272 886,400 886,400Z" style="fill:rgb(203,255,221);"/>
            </g>
            <g transform="matrix(2.43635,1.19807,1.32182,3.8035,-2161.37,-2132.37)">
                <path d="M842,497C842,497 910.987,415.128 913,420C913.368,425.53 904.775,437.866 902,434C895,434 842,497 842,497Z" style="fill:rgb(203,255,221);"/>
            </g>
            <g transform="matrix(2.43635,1.19807,1.32182,3.8035,-2161.37,-2132.37)">
                <path d="M729,548C729,548 619.614,545.234 617,551C619.32,556.108 624.431,556.55 625,556C625.24,555.45 640.563,551.536 638,553C635.437,554.464 624.181,557.314 628,560C672,545 729,548 729,548Z" style="fill:rgb(203,255,221);"/>
            </g>
            <g transform="matrix(2.43635,1.19807,1.32182,3.8035,-2161.37,-2132.37)">
                <path d="M736,589C736,589 695.083,628.072 697,636C698.917,639.981 703.242,646.189 707,637C707,620 736,589 736,589Z" style="fill:rgb(203,255,221);"/>
            </g>
            <g transform="matrix(2.43635,1.19807,1.32182,3.8035,-2161.37,-2132.37)">
                <path d="M840,515C843.31,514.007 879.958,505.372 884,499C891.66,502.824 891.221,511.584 887,510C882.779,508.416 862.387,512.034 862.387,512.034C862.387,512.034 836.69,515.993 840,515Z" style="fill:rgb(203,255,221);"/>
            </g>
        </g>
    </g>
</svg>
