<?xml version="1.0" encoding="UTF-8" standalone="no"?>
<!DOCTYPE svg PUBLIC "-//W3C//DTD SVG 1.1//EN" "http://www.w3.org/Graphics/SVG/1.1/DTD/svg11.dtd">
<svg width="100%" height="100%" viewBox="0 0 228 215" version="1.1" xmlns="http://www.w3.org/2000/svg" xmlns:xlink="http://www.w3.org/1999/xlink" xml:space="preserve" xmlns:serif="http://www.serif.com/" style="fill-rule:evenodd;clip-rule:evenodd;stroke-linejoin:round;stroke-miterlimit:2;">
    <g transform="matrix(1,0,0,1,-217,-501)">
        <g id="Doritos" transform="matrix(1,0,0,1,-159,250)">
            <path d="M376,283L389,267L403,285L376,283Z" style="fill:rgb(187,157,64);"/>
            <path d="M420,322L452,251L531,319L420,322Z" style="fill:rgb(216,175,48);"/>
            <path d="M514,278L526,251L541,279L514,278Z" style="fill:rgb(216,175,48);"/>
            <path d="M580,357L580,374L604,360L580,357Z" style="fill:rgb(187,157,64);"/>
            <path d="M504.992,419.983L522,466L591,400L504.992,419.983Z" style="fill:rgb(187,157,64);"/>
            <path d="M477,452L501,442L494,464L477,452Z" style="fill:rgb(216,175,48);"/>
        </g>
    </g>
</svg>
