<?xml version="1.0" encoding="UTF-8" standalone="no"?>
<!DOCTYPE svg PUBLIC "-//W3C//DTD SVG 1.1//EN" "http://www.w3.org/Graphics/SVG/1.1/DTD/svg11.dtd">
<svg width="100%" height="100%" viewBox="0 0 414 270" version="1.1" xmlns="http://www.w3.org/2000/svg" xmlns:xlink="http://www.w3.org/1999/xlink" xml:space="preserve" xmlns:serif="http://www.serif.com/" style="fill-rule:evenodd;clip-rule:evenodd;stroke-linejoin:round;stroke-miterlimit:2;">
    <g transform="matrix(1,0,0,1,-67.3794,-284.398)">
        <g id="Guacamole">
            <path d="M465,358C476.596,377.731 481,396.475 481,421C481,494.405 421.405,554 348,554C303.891,554 266.203,534.106 242,501L465,358Z" style="fill:rgb(142,79,57);"/>
            <clipPath id="_clip1">
                <path d="M465,358C476.596,377.731 481,396.475 481,421C481,494.405 421.405,554 348,554C303.891,554 266.203,534.106 242,501L465,358Z"/>
            </clipPath>
            <g clip-path="url(#_clip1)">
                <path d="M249.766,524.227C249.766,524.227 403.593,538.26 513.333,398.363C551.467,349.751 516.506,508.878 516.506,508.878L363.014,598.78L242.413,567.643L249.766,524.227Z" style="fill:rgb(112,55,35);"/>
                <path d="M323.27,517.856C323.27,517.856 281.581,510.593 281.581,488.665C281.581,466.738 250.882,470.246 241.673,472.878C232.463,475.509 214.483,468.931 209.659,480.771C204.835,492.612 197.818,505.33 202.203,511.031C206.589,516.732 228.955,532.52 233.34,534.274C237.726,536.028 323.27,517.856 323.27,517.856Z" style="fill:rgb(112,55,35);"/>
            </g>
            <g transform="matrix(0.937037,-0.594875,0.672323,1.05903,-256.387,213.067)">
                <ellipse cx="359.5" cy="406" rx="119.5" ry="35" style="fill:rgb(112,55,35);"/>
            </g>
            <path d="M260.325,509.175C253.032,504.926 247.111,497.176 245,490C243.339,484.353 239,487.712 206,493C169.218,498.894 113.79,481.426 110,451C101.986,408.346 166.654,416.922 190,435C201.466,443.879 256.643,438.875 243,431C231.883,428.009 199.126,416.004 186,401C160.816,372.214 205.294,351.249 233,363C299.251,410.212 345.883,380.869 337.887,365.639C333.801,357.396 313.218,340.457 327,323C340.268,307.599 364,352 379,353C394,359 427,345.552 449,356C466.513,364.318 460.306,389.503 460.306,389.503C446.844,412.387 416.426,441.195 376.972,466.242C331.165,495.323 285.953,511.224 260.325,509.175Z" style="fill:rgb(0,158,53);"/>
            <clipPath id="_clip2">
                <path d="M260.325,509.175C253.032,504.926 247.111,497.176 245,490C243.339,484.353 239,487.712 206,493C169.218,498.894 113.79,481.426 110,451C101.986,408.346 166.654,416.922 190,435C201.466,443.879 256.643,438.875 243,431C231.883,428.009 199.126,416.004 186,401C160.816,372.214 205.294,351.249 233,363C299.251,410.212 345.883,380.869 337.887,365.639C333.801,357.396 313.218,340.457 327,323C340.268,307.599 364,352 379,353C394,359 427,345.552 449,356C466.513,364.318 460.306,389.503 460.306,389.503C446.844,412.387 416.426,441.195 376.972,466.242C331.165,495.323 285.953,511.224 260.325,509.175Z"/>
            </clipPath>
            <g clip-path="url(#_clip2)">
                <path d="M99.706,427.738C99.706,427.738 147.771,468.085 206.01,464.927C232.674,462.822 241.796,451.946 257.233,465.278C272.67,478.61 387.745,433.001 407.392,413.354C427.039,393.707 457.562,365.289 464.228,368.096C470.894,370.902 476.858,408.793 476.858,408.793L442.827,471.242L377.921,505.975L282.844,522.465C282.844,522.465 200.397,520.71 197.239,520.36C194.082,520.009 137.948,514.045 137.948,514.045C137.948,514.045 88.479,473.347 88.479,469.839C88.479,466.33 99.706,427.738 99.706,427.738Z" style="fill:rgb(0,137,46);"/>
                <path d="M162.857,387.392C162.857,387.392 174.084,361.78 199.695,369.499C231.055,387.456 224.972,400.474 253.023,402.478C269.462,403.652 278.348,401.486 290.01,425.605C298.077,442.292 316.332,410.757 342.562,417.839C356.734,421.665 340.396,435.71 363.798,438.314C356.431,448.839 305.298,463.524 301.439,464.225C297.579,464.927 281.266,476.584 263.197,473.698C245.199,470.823 228.026,462.534 232.564,460.224C239.565,456.662 240.652,448.907 236.954,445.21C230.288,438.544 214.08,436.158 203.204,432.299C192.328,428.44 167.067,415.459 164.962,411.95C162.857,408.442 162.857,387.392 162.857,387.392Z" style="fill:rgb(0,137,46);"/>
                <path d="M329.857,354.764C329.857,354.764 310.911,338.274 331.962,340.379C353.012,342.484 360.029,353.36 361.783,358.623C363.537,363.885 362.344,372.606 367.562,380.538C375.474,386.314 398.562,383.21 393.145,395.871C386.83,399.73 374.189,410.44 363.313,410.44C352.437,410.44 344.241,401.074 334.067,396.163C323.892,391.251 316.875,387.743 316.525,384.585C316.174,381.427 329.857,354.764 329.857,354.764Z" style="fill:rgb(0,137,46);"/>
            </g>
            <path d="M251,312C242.395,322.196 212.937,310.006 221,294C229.063,277.994 232.606,292.718 245,294C266.976,296.273 253.084,310.069 251,312Z" style="fill:rgb(0,158,53);"/>
            <clipPath id="_clip3">
                <path d="M251,312C242.395,322.196 212.937,310.006 221,294C229.063,277.994 232.606,292.718 245,294C266.976,296.273 253.084,310.069 251,312Z"/>
            </clipPath>
            <g clip-path="url(#_clip3)">
                <path d="M216.388,304.77C218.841,299.32 218.023,291.417 228.378,296.594C238.734,301.772 240.369,307.495 245.274,306.405C250.179,305.315 256.174,298.775 263.259,303.952C270.344,309.13 274.159,313.217 271.979,317.85C269.799,322.482 240.369,333.928 233.556,330.93C226.743,327.933 213.936,310.22 216.388,304.77Z" style="fill:rgb(0,137,46);"/>
            </g>
            <path d="M124,366C99.125,369.797 40.08,303.198 82,288C124.809,271.486 113.046,315.623 121,342C123.239,349.41 135.503,362.304 124,366Z" style="fill:rgb(0,158,53);"/>
            <clipPath id="_clip4">
                <path d="M124,366C99.125,369.797 40.08,303.198 82,288C124.809,271.486 113.046,315.623 121,342C123.239,349.41 135.503,362.304 124,366Z"/>
            </clipPath>
            <g clip-path="url(#_clip4)">
                <path d="M48.577,311.795C48.577,311.795 62.415,293.699 81.043,296.893C99.671,300.086 109.251,307.005 108.187,322.44C107.122,337.875 104.994,353.309 117.767,360.229C130.541,367.148 147.572,382.05 147.572,382.05C147.572,382.05 98.607,412.388 86.898,406.533C75.188,400.678 44.319,394.824 38.996,383.115C33.674,371.405 48.577,311.795 48.577,311.795Z" style="fill:rgb(0,137,46);"/>
            </g>
        </g>
    </g>
</svg>
