<?xml version="1.0" encoding="UTF-8" standalone="no"?>
<!DOCTYPE svg PUBLIC "-//W3C//DTD SVG 1.1//EN" "http://www.w3.org/Graphics/SVG/1.1/DTD/svg11.dtd">
<svg width="100%" height="100%" viewBox="0 0 241 214" version="1.1" xmlns="http://www.w3.org/2000/svg" xmlns:xlink="http://www.w3.org/1999/xlink" xml:space="preserve" xmlns:serif="http://www.serif.com/" style="fill-rule:evenodd;clip-rule:evenodd;stroke-linejoin:round;stroke-miterlimit:2;">
    <g transform="matrix(1,0,0,1,-580,-276)">
        <g id="Marteau">
            <g transform="matrix(0.997017,0.077178,-0.077178,0.997017,39.6355,-52.6444)">
                <path d="M684,384C684,384 604.297,445.105 585.053,457.421C563.615,467.088 598.303,510.215 614,492C643,462 694,408 694,408L684,384Z" style="fill:rgb(199,132,109);"/>
                <clipPath id="_clip1">
                    <path d="M684,384C684,384 604.297,445.105 585.053,457.421C563.615,467.088 598.303,510.215 614,492C643,462 694,408 694,408L684,384Z"/>
                </clipPath>
                <g clip-path="url(#_clip1)">
                    <g transform="matrix(0.997017,-0.077178,0.077178,0.997017,-35.4543,55.5464)">
                        <path d="M580.095,458.021C591.665,462.889 607.566,463.291 633,445C658.434,426.709 671.751,413.88 672,405C672.249,396.12 670,381 670,381L693,373L725,392C725,392 732.165,426.002 730,428C727.835,429.998 681.422,464.203 677,467C672.578,469.797 629.062,502.707 625,505C620.938,507.293 565.99,491.073 566,488C566.01,484.927 565.235,451.507 580.095,458.021Z" style="fill:rgb(163,92,67);"/>
                    </g>
                </g>
            </g>
            <g>
                <g transform="matrix(0.579614,-0.440658,0.379688,0.499418,100.957,437.172)">
                    <ellipse cx="760" cy="422" rx="65" ry="47" style="fill:rgb(200,75,49);"/>
                </g>
                <path d="M660.89,335.301L701.247,464.521L815.618,392.823L740.213,285.621L660.89,335.301Z" style="fill:rgb(200,75,49);"/>
                <clipPath id="_clip2">
                    <path d="M660.89,335.301L701.247,464.521L815.618,392.823L740.213,285.621L660.89,335.301Z"/>
                </clipPath>
                <g clip-path="url(#_clip2)">
                    <path d="M655.745,341.638C655.745,341.638 701.793,413.998 707.933,406.981C720.212,389.878 776.627,355.373 810.395,385.633C824.868,402.298 840.813,420.138 840.813,420.138L812.308,472.764L693.461,506.532C693.461,506.532 657.5,425.839 656.184,421.892C654.868,417.945 655.745,341.638 655.745,341.638Z" style="fill:rgb(152,59,39);"/>
                </g>
            </g>
            <path d="M755.085,386.182L748,362L763,377L762,369L774,381L755.085,386.182Z" style="fill:rgb(199,132,109);"/>
            <clipPath id="_clip3">
                <path d="M755.085,386.182L748,362L763,377L762,369L774,381L755.085,386.182Z"/>
            </clipPath>
            <g clip-path="url(#_clip3)">
                <path d="M747.559,361.574L762,381.156L763,377L750.388,358.001L747.559,361.574Z" style="fill:rgb(163,92,67);"/>
                <path d="M775.039,380.979L763.893,364.901L761.559,368.53L771.707,384.263L775.039,380.979Z" style="fill:rgb(163,92,67);"/>
            </g>
            <g transform="matrix(0.835441,-0.635153,0.547272,0.719848,-105.79,611.309)">
                <ellipse cx="760" cy="422" rx="65" ry="47" style="fill:rgb(199,132,109);"/>
                <clipPath id="_clip4">
                    <ellipse cx="760" cy="422" rx="65" ry="47"/>
                </clipPath>
                <g clip-path="url(#_clip4)">
                    <g transform="matrix(0.742742,-0.0109183,0.00977049,0.895256,227.171,99.2517)">
                        <ellipse cx="713.978" cy="381.755" rx="75.444" ry="50.159" style="fill:rgb(163,92,67);"/>
                    </g>
                </g>
            </g>
        </g>
    </g>
</svg>
