<?xml version="1.0" encoding="UTF-8" standalone="no"?>
<!DOCTYPE svg PUBLIC "-//W3C//DTD SVG 1.1//EN" "http://www.w3.org/Graphics/SVG/1.1/DTD/svg11.dtd">
<svg width="100%" height="100%" viewBox="0 0 174 112" version="1.1" xmlns="http://www.w3.org/2000/svg" xmlns:xlink="http://www.w3.org/1999/xlink" xml:space="preserve" xmlns:serif="http://www.serif.com/" style="fill-rule:evenodd;clip-rule:evenodd;stroke-linejoin:round;stroke-miterlimit:2;">
    <g transform="matrix(1,0,0,1,-473,-604)">
        <g id="taupe" transform="matrix(1,0,0,1,-105.755,7.04825)">
            <path d="M618,659C618,659 606.703,653.292 606,657C605.297,660.708 604,662 604,662C604,662 575.859,675.084 579,680C580.826,684.389 589,684 589,684C589,684 596.281,686.665 595,695C598.455,701.493 590.126,706.35 606,708C621.874,709.65 638.392,708.875 645,704C651.608,699.125 659.974,691.665 670,695C683.184,697.809 688.344,698.085 693,694C697.656,689.915 697.503,684.19 701,686C704.76,688.6 721.874,692.821 727,689C730.547,683.337 735.401,684.767 736,678C740.02,675.706 744.877,668.767 751,670C753.966,666.76 752.244,666.082 751,663C749.756,659.918 752.666,662.555 752,659C751.334,655.445 743.032,651.976 736,652C728.968,652.024 708.555,654.555 706,655C703.445,655.445 666.603,654.818 662,655C657.397,655.182 618,659 618,659Z" style="fill:rgb(142,79,57);"/>
            <clipPath id="_clip1">
                <path d="M618,659C618,659 606.703,653.292 606,657C605.297,660.708 604,662 604,662C604,662 575.859,675.084 579,680C580.826,684.389 589,684 589,684C589,684 596.281,686.665 595,695C598.455,701.493 590.126,706.35 606,708C621.874,709.65 638.392,708.875 645,704C651.608,699.125 659.974,691.665 670,695C683.184,697.809 688.344,698.085 693,694C697.656,689.915 697.503,684.19 701,686C704.76,688.6 721.874,692.821 727,689C730.547,683.337 735.401,684.767 736,678C740.02,675.706 744.877,668.767 751,670C753.966,666.76 752.244,666.082 751,663C749.756,659.918 752.666,662.555 752,659C751.334,655.445 743.032,651.976 736,652C728.968,652.024 708.555,654.555 706,655C703.445,655.445 666.603,654.818 662,655C657.397,655.182 618,659 618,659Z"/>
            </clipPath>
            <g clip-path="url(#_clip1)">
                <g transform="matrix(1,0,0,1,105.755,-7.04825)">
                    <path d="M510.739,679.9C510.739,679.9 491.653,686.636 485.591,703.027C479.528,719.418 496.368,725.256 502.88,727.053C509.392,728.849 537.234,730.196 546.665,729.298C556.095,728.4 579.672,723.011 587.081,721.888C594.491,720.766 660.056,696.669 660.056,683.87C660.056,671.071 657.811,666.581 652.197,663.662C646.584,660.743 638.5,657.824 635.581,658.273C632.662,658.722 627.947,657.824 619.415,659.396C610.882,660.967 606.167,661.865 595.389,663.437C584.611,665.009 582.591,668.152 572.711,667.928C562.831,667.703 559.014,670.847 548.91,671.521C538.806,672.194 510.739,679.9 510.739,679.9Z" style="fill:rgb(94,59,48);"/>
                </g>
            </g>
            <path d="M704,651C704,651 723.614,640.135 743,652C747,661 741.526,656.894 734,656C724.284,656.024 715.402,655.925 731,662C724.495,663.076 726.398,661.45 719,662C711.602,662.55 705,665 705,665L704,651Z" style="fill:rgb(191,160,171);"/>
            <clipPath id="_clip2">
                <path d="M704,651C704,651 723.614,640.135 743,652C747,661 741.526,656.894 734,656C724.284,656.024 715.402,655.925 731,662C724.495,663.076 726.398,661.45 719,662C711.602,662.55 705,665 705,665L704,651Z"/>
            </clipPath>
            <g clip-path="url(#_clip2)">
                <g transform="matrix(1,0,0,1,105.755,-7.04825)">
                    <path d="M593.671,664.421C593.671,664.421 614.688,652.386 627.082,657.415C639.476,662.445 647.201,674.121 647.201,674.121L608.76,680.588L594.749,674.48L593.671,664.421Z" style="fill:rgb(147,108,122);"/>
                </g>
            </g>
            <path d="M613,677C613,677 604.975,603.225 645,601C655.818,600.617 691,601 711,661C714.057,671.486 698.632,674.527 698.632,674.527L631,689C631,689 611.757,690.232 613,677Z" style="fill:rgb(60,49,41);"/>
            <clipPath id="_clip3">
                <path d="M613,677C613,677 604.975,603.225 645,601C655.818,600.617 691,601 711,661C714.057,671.486 698.632,674.527 698.632,674.527L631,689C631,689 611.757,690.232 613,677Z"/>
            </clipPath>
            <g clip-path="url(#_clip3)">
                <g transform="matrix(1,0,0,1,105.755,-7.04825)">
                    <path d="M536.299,649.979C534.323,667.224 502.349,671.355 502.349,671.355L499.475,695.246L516.899,703.509L535.94,700.096L607.073,688.061C607.073,688.061 611.966,661.318 602.223,644.95C579.866,607.39 544.134,635.143 544.134,635.143C544.134,635.143 540.898,635.07 536.299,649.979Z" style="fill:rgb(44,32,24);"/>
                </g>
            </g>
            <path d="M645,643C645,643 659.132,595.225 668,597C675.931,599.058 687.307,628.831 691.462,643.579C691.953,645.322 645,643 645,643Z" style="fill:rgb(60,49,41);"/>
            <clipPath id="_clip4">
                <path d="M645,643C645,643 659.132,595.225 668,597C675.931,599.058 687.307,628.831 691.462,643.579C691.953,645.322 645,643 645,643Z"/>
            </clipPath>
            <g clip-path="url(#_clip4)">
                <g transform="matrix(1,0,0,1,105.755,-7.04825)">
                    <path d="M533.066,628.783C533.066,628.783 556.238,644.77 562.166,636.327C565.938,633.274 557.316,587.648 568.273,587.648C579.231,587.648 603.84,643.692 603.84,643.692L597.912,666.505C597.912,666.505 560.729,669.918 558.034,669.2C555.34,668.481 530.91,650.518 530.91,650.518L533.066,628.783Z" style="fill:rgb(44,32,24);"/>
                </g>
                <path d="M648,615C660.554,622.193 671.82,628.436 695,614C679.237,589.302 659,584 659,584C659,584 640.708,608.859 648,615Z" style="fill:rgb(191,160,171);"/>
                <clipPath id="_clip5">
                    <path d="M648,615C660.554,622.193 671.82,628.436 695,614C679.237,589.302 659,584 659,584C659,584 640.708,608.859 648,615Z"/>
                </clipPath>
                <g clip-path="url(#_clip5)">
                    <g transform="matrix(1,0,0,1,105.755,-7.04825)">
                        <path d="M533.066,628.783C533.066,628.783 556.238,644.77 562.166,636.327C565.938,633.274 557.316,587.648 568.273,587.648C579.231,587.648 603.84,643.692 603.84,643.692L597.912,666.505C597.912,666.505 560.729,669.918 558.034,669.2C555.34,668.481 530.91,650.518 530.91,650.518L533.066,628.783Z" style="fill:rgb(147,108,122);"/>
                    </g>
                </g>
            </g>
            <path d="M622,668C615.789,667.641 597.752,665.247 587,697C590.457,700.598 589.861,696.347 602,689C605.192,691.915 603.43,700.406 606,700C611.772,699.412 625.842,683.368 625.842,683.368C625.842,683.368 630.14,672.303 622,668Z" style="fill:rgb(191,160,171);"/>
            <clipPath id="_clip6">
                <path d="M622,668C615.789,667.641 597.752,665.247 587,697C590.457,700.598 589.861,696.347 602,689C605.192,691.915 603.43,700.406 606,700C611.772,699.412 625.842,683.368 625.842,683.368C625.842,683.368 630.14,672.303 622,668Z"/>
            </clipPath>
            <g clip-path="url(#_clip6)">
                <g transform="matrix(1,0,0,1,105.755,-7.04825)">
                    <path d="M478.349,708.789C478.349,708.789 494.336,684.719 499.006,691.186C501.88,697.832 505.113,696.215 509.245,691.006C513.376,685.797 514.993,674.301 516.789,671.067C518.586,667.834 540.321,690.288 540.321,690.288L531.16,707.173L507.628,715.975L484.456,716.334L478.349,708.789Z" style="fill:rgb(147,108,122);"/>
                </g>
            </g>
        </g>
    </g>
</svg>
