<?xml version="1.0" encoding="UTF-8" standalone="no"?>
<!DOCTYPE svg PUBLIC "-//W3C//DTD SVG 1.1//EN" "http://www.w3.org/Graphics/SVG/1.1/DTD/svg11.dtd">
<svg width="100%" height="100%" viewBox="0 0 380 186" version="1.1" xmlns="http://www.w3.org/2000/svg" xmlns:xlink="http://www.w3.org/1999/xlink" xml:space="preserve" xmlns:serif="http://www.serif.com/" style="fill-rule:evenodd;clip-rule:evenodd;stroke-linejoin:round;stroke-miterlimit:2;">
    <g transform="matrix(1,0,0,1,839.235,-432.155)">
        <g transform="matrix(0.998141,-0.0609464,0.0609464,0.998141,-11.8822,34.8658)">
            <text x="-853.58px" y="445.195px" style="font-family:'Cocogoose';font-size:96px;fill:none;stroke:white;stroke-width:10.85px;">GW<tspan x="-687.596px -620.444px " y="445.195px 445.195px ">AC</tspan>K</text>
            <text x="-832.76px" y="527.861px" style="font-family:'Cocogoose';font-size:80px;fill:none;stroke:white;stroke-width:10.85px;">A MOLE</text>
            <clipPath id="_clip1">
                <path d="M-800.876,394.027C-802.508,392.875 -804.252,391.979 -806.108,391.339C-807.964,390.699 -809.948,390.379 -812.06,390.379C-814.716,390.379 -817.148,390.883 -819.356,391.891C-821.564,392.899 -823.46,394.267 -825.044,395.995C-826.628,397.723 -827.868,399.747 -828.764,402.067C-829.66,404.387 -830.108,406.859 -830.108,409.483C-830.108,412.107 -829.66,414.571 -828.764,416.875C-827.868,419.179 -826.628,421.187 -825.044,422.899C-823.46,424.611 -821.564,425.963 -819.356,426.955C-817.148,427.947 -814.716,428.443 -812.06,428.443C-810.94,428.443 -809.828,428.363 -808.724,428.203C-807.62,428.043 -806.444,427.835 -805.196,427.579L-805.196,415.003C-805.196,414.395 -805.02,413.891 -804.668,413.491C-804.316,413.091 -803.788,412.891 -803.084,412.891L-790.028,412.891C-789.548,412.891 -789.036,413.083 -788.492,413.467C-787.948,413.851 -787.676,414.363 -787.676,415.003L-787.676,438.235C-787.676,439.099 -788.14,439.803 -789.068,440.347C-790.572,441.371 -792.236,442.251 -794.06,442.987C-795.884,443.723 -797.788,444.331 -799.772,444.811C-801.756,445.291 -803.764,445.651 -805.796,445.891C-807.828,446.131 -809.804,446.251 -811.724,446.251C-815.116,446.251 -818.372,445.819 -821.492,444.955C-824.612,444.091 -827.532,442.859 -830.252,441.259C-832.972,439.659 -835.444,437.747 -837.668,435.523C-839.892,433.299 -841.804,430.835 -843.404,428.131C-845.004,425.427 -846.236,422.515 -847.1,419.395C-847.964,416.275 -848.396,413.019 -848.396,409.627C-848.396,406.235 -847.964,402.979 -847.1,399.859C-846.236,396.739 -845.004,393.811 -843.404,391.075C-841.804,388.339 -839.892,385.851 -837.668,383.611C-835.444,381.371 -832.972,379.459 -830.252,377.875C-827.532,376.291 -824.612,375.059 -821.492,374.179C-818.372,373.299 -815.116,372.859 -811.724,372.859C-807.884,372.859 -804.26,373.395 -800.852,374.467C-797.444,375.539 -794.236,377.083 -791.228,379.099C-790.684,379.419 -790.268,379.843 -789.98,380.371C-789.692,380.899 -789.756,381.499 -790.172,382.171L-797.948,393.403C-798.364,393.915 -798.78,394.259 -799.196,394.435C-799.612,394.611 -800.172,394.475 -800.876,394.027ZM-754.076,444.187C-754.396,443.643 -754.7,443.083 -754.988,442.507C-755.276,441.931 -755.532,441.355 -755.756,440.779C-759.884,429.899 -763.996,419.115 -768.092,408.427C-772.188,397.739 -776.3,386.955 -780.428,376.075C-780.428,375.915 -780.452,375.771 -780.5,375.643C-780.548,375.515 -780.572,375.387 -780.572,375.259C-780.572,374.363 -779.98,373.915 -778.796,373.915L-763.34,373.915C-762.124,373.915 -761.292,374.523 -760.844,375.739L-746.156,419.467L-732.572,375.739C-732.124,374.523 -731.244,373.915 -729.932,373.915L-714.332,373.915C-713.596,373.915 -713.076,374.051 -712.772,374.323C-712.468,374.595 -712.316,374.955 -712.316,375.403C-712.316,375.659 -712.332,375.835 -712.364,375.931L-712.364,376.075L-720.908,400.555L-714.476,419.419L-698.924,375.739C-698.476,374.523 -697.596,373.915 -696.284,373.915L-681.164,373.915C-680.428,373.915 -679.908,374.051 -679.604,374.323C-679.3,374.595 -679.148,374.955 -679.148,375.403C-679.148,375.659 -679.164,375.835 -679.196,375.931L-679.196,376.075C-681.372,381.707 -683.596,387.323 -685.868,392.923C-688.14,398.523 -690.42,404.123 -692.708,409.723C-694.996,415.323 -697.268,420.931 -699.524,426.547C-701.78,432.163 -703.98,437.771 -706.124,443.371C-706.252,443.723 -706.54,444.115 -706.988,444.547C-707.436,444.979 -707.98,445.195 -708.62,445.195L-720.38,445.195C-721.084,445.195 -721.62,445.059 -721.988,444.787C-722.356,444.515 -722.62,444.155 -722.78,443.707L-730.364,423.739C-731.452,426.651 -732.524,429.507 -733.58,432.307C-734.636,435.107 -735.692,437.963 -736.748,440.875C-736.908,441.323 -737.092,441.795 -737.3,442.291C-737.508,442.787 -737.756,443.251 -738.044,443.683C-738.332,444.115 -738.66,444.475 -739.028,444.763C-739.396,445.051 -739.82,445.195 -740.3,445.195L-752.06,445.195C-753.084,445.195 -753.756,444.859 -754.076,444.187ZM-659.468,375.787C-659.436,375.595 -659.332,375.387 -659.156,375.163C-658.98,374.939 -658.764,374.731 -658.508,374.539C-658.252,374.347 -657.98,374.195 -657.692,374.083C-657.404,373.971 -657.132,373.915 -656.876,373.915L-644.588,373.915C-644.044,373.915 -643.58,374.083 -643.196,374.419C-642.812,374.755 -642.524,375.051 -642.332,375.307L-641.132,378.043L-615.932,443.035C-615.676,443.675 -615.724,444.195 -616.076,444.595C-616.428,444.995 -617.036,445.195 -617.9,445.195L-631.676,445.195C-632.412,445.195 -632.98,445.059 -633.38,444.787C-633.78,444.515 -634.092,444.059 -634.316,443.419C-634.956,441.787 -635.58,440.163 -636.188,438.547C-636.796,436.931 -637.404,435.307 -638.012,433.675L-663.5,433.675C-664.108,435.307 -664.724,436.931 -665.348,438.547C-665.972,440.163 -666.588,441.787 -667.196,443.419C-667.612,444.603 -668.428,445.195 -669.644,445.195L-683.804,445.195C-684.412,445.195 -684.916,445.035 -685.316,444.715C-685.716,444.395 -685.788,443.915 -685.532,443.275L-659.468,375.787ZM-650.732,396.331C-651.34,397.963 -651.956,399.723 -652.58,401.611C-653.204,403.499 -653.82,405.403 -654.428,407.323C-655.036,409.243 -655.652,411.139 -656.276,413.011C-656.9,414.883 -657.516,416.635 -658.124,418.267L-643.388,418.267L-650.732,396.331ZM-558.332,379.099C-557.788,379.419 -557.388,379.835 -557.132,380.347C-556.876,380.859 -556.924,381.467 -557.276,382.171L-565.388,393.691C-565.74,394.235 -566.116,394.547 -566.516,394.627C-566.916,394.707 -567.404,394.571 -567.98,394.219C-569.548,393.035 -571.276,392.123 -573.164,391.483C-575.052,390.843 -577.052,390.523 -579.164,390.523C-581.788,390.523 -584.204,391.019 -586.412,392.011C-588.62,393.003 -590.524,394.363 -592.124,396.091C-593.724,397.819 -594.972,399.835 -595.868,402.139C-596.764,404.443 -597.212,406.907 -597.212,409.531C-597.212,412.155 -596.764,414.611 -595.868,416.899C-594.972,419.187 -593.724,421.187 -592.124,422.899C-590.524,424.611 -588.62,425.963 -586.412,426.955C-584.204,427.947 -581.788,428.443 -579.164,428.443C-577.052,428.443 -575.036,428.115 -573.116,427.459C-571.196,426.803 -569.452,425.883 -567.884,424.699C-567.308,424.347 -566.828,424.203 -566.444,424.267C-566.06,424.331 -565.676,424.619 -565.292,425.131L-557.084,436.939C-556.732,437.643 -556.684,438.235 -556.94,438.715C-557.196,439.195 -557.596,439.595 -558.14,439.915C-561.148,441.931 -564.388,443.491 -567.86,444.595C-571.332,445.699 -574.988,446.251 -578.828,446.251C-582.22,446.251 -585.476,445.819 -588.596,444.955C-591.716,444.091 -594.636,442.859 -597.356,441.259C-600.076,439.659 -602.548,437.747 -604.772,435.523C-606.996,433.299 -608.908,430.835 -610.508,428.131C-612.108,425.427 -613.34,422.515 -614.204,419.395C-615.068,416.275 -615.5,413.019 -615.5,409.627C-615.5,406.235 -615.068,402.979 -614.204,399.859C-613.34,396.739 -612.108,393.811 -610.508,391.075C-608.908,388.339 -606.996,385.851 -604.772,383.611C-602.548,381.371 -600.076,379.459 -597.356,377.875C-594.636,376.291 -591.716,375.059 -588.596,374.179C-585.476,373.299 -582.22,372.859 -578.828,372.859C-574.988,372.859 -571.364,373.395 -567.956,374.467C-564.548,375.539 -561.34,377.083 -558.332,379.099ZM-545.18,376.027C-545.18,375.451 -544.996,374.955 -544.629,374.539C-544.262,374.123 -543.744,373.915 -543.073,373.915L-528.902,373.915C-528.423,373.915 -527.921,374.107 -527.394,374.491C-526.867,374.875 -526.604,375.387 -526.604,376.027L-526.604,402.187C-523.116,397.707 -519.692,393.291 -516.332,388.939C-512.972,384.587 -509.564,380.171 -506.108,375.691C-505.756,375.147 -505.3,374.707 -504.74,374.371C-504.18,374.035 -503.628,373.867 -503.084,373.867L-484.844,373.867C-484.076,373.867 -483.692,374.107 -483.692,374.587C-483.692,374.907 -483.868,375.291 -484.22,375.739L-506.828,405.547L-481.82,443.179C-481.468,443.723 -481.292,444.155 -481.292,444.475C-481.292,444.955 -481.644,445.195 -482.348,445.195L-500.492,445.195C-501.036,445.195 -501.572,445.035 -502.1,444.715C-502.628,444.395 -503.068,443.963 -503.42,443.419C-505.116,441.115 -506.66,438.907 -508.052,436.795C-509.444,434.683 -510.796,432.579 -512.108,430.483C-513.42,428.387 -514.748,426.267 -516.092,424.123C-517.436,421.979 -518.908,419.723 -520.508,417.355L-526.604,424.363L-526.604,443.083C-526.604,444.491 -527.37,445.195 -528.902,445.195L-543.025,445.195C-544.462,445.195 -545.18,444.491 -545.18,443.083L-545.18,376.027ZM-809.32,470.021C-809.293,469.861 -809.207,469.688 -809.06,469.501C-808.913,469.315 -808.733,469.141 -808.52,468.981C-808.307,468.821 -808.08,468.695 -807.84,468.601C-807.6,468.508 -807.373,468.461 -807.16,468.461L-796.92,468.461C-796.467,468.461 -796.08,468.601 -795.76,468.881C-795.44,469.161 -795.2,469.408 -795.04,469.621L-794.04,471.901L-773.04,526.061C-772.827,526.595 -772.867,527.028 -773.16,527.361C-773.453,527.695 -773.96,527.861 -774.68,527.861L-786.16,527.861C-786.773,527.861 -787.247,527.748 -787.58,527.521C-787.913,527.295 -788.173,526.915 -788.36,526.381C-788.893,525.021 -789.413,523.668 -789.92,522.321C-790.427,520.975 -790.933,519.621 -791.44,518.261L-812.68,518.261C-813.187,519.621 -813.7,520.975 -814.22,522.321C-814.74,523.668 -815.253,525.021 -815.76,526.381C-816.107,527.368 -816.787,527.861 -817.8,527.861L-829.6,527.861C-830.107,527.861 -830.527,527.728 -830.86,527.461C-831.193,527.195 -831.253,526.795 -831.04,526.261L-809.32,470.021ZM-802.04,487.141C-802.547,488.501 -803.06,489.968 -803.58,491.541C-804.1,493.115 -804.613,494.701 -805.12,496.301C-805.627,497.901 -806.14,499.481 -806.66,501.041C-807.18,502.601 -807.693,504.061 -808.2,505.421L-795.92,505.421L-802.04,487.141ZM-736.68,470.221C-736.627,469.741 -736.44,469.328 -736.12,468.981C-735.8,468.635 -735.347,468.461 -734.76,468.461L-720.92,468.461C-719.933,468.461 -719.293,468.968 -719,469.981L-708.12,506.301L-697.16,469.981C-696.787,468.968 -696.107,468.461 -695.12,468.461L-681.44,468.461C-680.96,468.461 -680.527,468.628 -680.14,468.961C-679.753,469.295 -679.533,469.715 -679.48,470.221C-678.547,479.608 -677.593,488.921 -676.62,498.161C-675.647,507.401 -674.693,516.715 -673.76,526.101L-673.76,526.301C-673.76,527.341 -674.347,527.861 -675.52,527.861L-686.84,527.861C-688.067,527.861 -688.707,527.275 -688.76,526.101L-692.24,495.181L-701.24,526.301C-701.293,526.568 -701.487,526.888 -701.82,527.261C-702.153,527.635 -702.48,527.821 -702.8,527.821L-713.32,527.821C-713.64,527.821 -713.98,527.641 -714.34,527.281C-714.7,526.921 -714.893,526.595 -714.92,526.301L-723.92,495.261L-727.4,526.101C-727.453,527.275 -728.107,527.861 -729.36,527.861L-740.68,527.861C-741.827,527.861 -742.4,527.275 -742.4,526.101L-736.68,470.221ZM-650.44,498.181C-650.44,500.395 -650.067,502.461 -649.322,504.381C-648.576,506.301 -647.531,507.975 -646.186,509.401C-644.841,510.828 -643.249,511.948 -641.412,512.761C-639.574,513.575 -637.55,513.981 -635.34,513.981C-633.13,513.981 -631.099,513.575 -629.248,512.761C-627.397,511.948 -625.799,510.828 -624.454,509.401C-623.109,507.975 -622.064,506.301 -621.318,504.381C-620.573,502.461 -620.2,500.395 -620.2,498.181C-620.2,495.995 -620.573,493.935 -621.318,492.001C-622.064,490.068 -623.109,488.381 -624.454,486.941C-625.799,485.501 -627.397,484.368 -629.248,483.541C-631.099,482.715 -633.13,482.301 -635.34,482.301C-637.55,482.301 -639.574,482.715 -641.412,483.541C-643.249,484.368 -644.841,485.501 -646.186,486.941C-647.531,488.381 -648.576,490.068 -649.322,492.001C-650.067,493.935 -650.44,495.995 -650.44,498.181ZM-665.92,498.221C-665.92,495.395 -665.56,492.681 -664.839,490.081C-664.119,487.481 -663.092,485.041 -661.757,482.761C-660.423,480.481 -658.829,478.408 -656.974,476.541C-655.12,474.675 -653.058,473.081 -650.79,471.761C-648.522,470.441 -646.087,469.415 -643.485,468.681C-640.883,467.948 -638.168,467.581 -635.34,467.581C-632.538,467.581 -629.83,467.948 -627.215,468.681C-624.599,469.415 -622.158,470.441 -619.89,471.761C-617.622,473.081 -615.554,474.675 -613.686,476.541C-611.818,478.408 -610.223,480.481 -608.902,482.761C-607.582,485.041 -606.554,487.481 -605.821,490.081C-605.087,492.681 -604.72,495.395 -604.72,498.221C-604.72,501.048 -605.087,503.761 -605.821,506.361C-606.554,508.961 -607.582,511.388 -608.902,513.641C-610.223,515.895 -611.818,517.948 -613.686,519.801C-615.554,521.655 -617.622,523.248 -619.89,524.581C-622.158,525.915 -624.599,526.941 -627.215,527.661C-629.83,528.381 -632.538,528.741 -635.34,528.741C-638.168,528.741 -640.883,528.381 -643.485,527.661C-646.087,526.941 -648.522,525.915 -650.79,524.581C-653.058,523.248 -655.12,521.655 -656.974,519.801C-658.829,517.948 -660.423,515.895 -661.757,513.641C-663.092,511.388 -664.119,508.961 -664.839,506.361C-665.56,503.761 -665.92,501.048 -665.92,498.221ZM-596.36,470.181C-596.36,469.701 -596.2,469.288 -595.88,468.941C-595.56,468.595 -595.12,468.421 -594.56,468.421L-582.72,468.421C-582.267,468.421 -581.853,468.581 -581.48,468.901C-581.107,469.221 -580.907,469.648 -580.88,470.181L-580.88,513.701L-558.88,513.701C-558.4,513.701 -557.987,513.861 -557.64,514.181C-557.293,514.501 -557.12,514.941 -557.12,515.501L-557.12,526.021C-557.12,526.475 -557.273,526.888 -557.58,527.261C-557.887,527.635 -558.32,527.835 -558.88,527.861L-594.6,527.861C-595.773,527.861 -596.36,527.275 -596.36,526.101L-596.36,470.181ZM-547.8,470.301C-547.8,469.741 -547.647,469.295 -547.341,468.961C-547.035,468.628 -546.603,468.461 -546.044,468.461L-506.36,468.461C-505.773,468.461 -505.32,468.634 -505,468.98C-504.68,469.325 -504.52,469.791 -504.52,470.376L-504.52,480.267C-504.52,480.719 -504.68,481.151 -505,481.563C-505.32,481.975 -505.787,482.181 -506.4,482.181L-532.32,482.181L-532.32,492.101L-512.32,492.101C-511.813,492.101 -511.393,492.221 -511.06,492.461C-510.727,492.701 -510.56,493.101 -510.56,493.661L-510.56,502.301C-510.56,502.675 -510.707,503.035 -511,503.381C-511.293,503.728 -511.72,503.901 -512.28,503.901L-532.32,503.901L-532.32,514.141L-505.44,514.141C-504.24,514.141 -503.64,514.753 -503.64,515.976L-503.64,526.027C-503.64,526.293 -503.747,526.532 -503.96,526.744C-504.067,527.489 -504.613,527.861 -505.6,527.861L-546.044,527.861C-546.576,527.861 -547.002,527.721 -547.321,527.441C-547.64,527.161 -547.8,526.728 -547.8,526.141L-547.8,470.301Z" clip-rule="nonzero"/>
            </clipPath>
            <g clip-path="url(#_clip1)">
                <text x="-853.58px" y="445.195px" style="font-family:'Cocogoose';font-size:96px;fill:rgb(242,191,0);">GW<tspan x="-687.596px -620.444px " y="445.195px 445.195px ">AC</tspan>K</text>
                <text x="-832.76px" y="527.861px" style="font-family:'Cocogoose';font-size:80px;fill:rgb(242,191,0);">A MOLE</text>
                <g id="Layer1" transform="matrix(0.998141,0.0609464,-0.0609464,0.998141,13.9851,-34.0768)">
                    <path d="M-779,460L-789,467L-794,455L-801,463L-810,458L-810,468L-821,463L-818,477L-833,478L-824,487L-835,494L-825,496L-833,506L-822,506L-827,518L-815,512L-817,525L-806,519L-803,530L-798,522L-791,530L-786,519L-776,528L-777,516L-770,510L-777,505L-773,496L-764,520L-767,533L-785,539L-808,540L-841,524L-845,504L-845,469L-831,449L-800,443L-779,460Z" style="fill:rgb(215,0,15);"/>
                    <path d="M-771,454L-761,462L-757,453L-752,462L-746,454L-771,454Z" style="fill:rgb(215,0,15);"/>
                    <path d="M-721,452L-716,459L-712,451L-708,458L-704,451L-702,458L-696,451L-713,441L-721,452Z" style="fill:rgb(215,0,15);"/>
                    <path d="M-687,449L-682,456L-677,448L-672,457L-666,448L-683,439L-687,449Z" style="fill:rgb(215,0,15);"/>
                    <path d="M-744,525L-735,516L-732,527L-726,516L-720,525L-710,524L-702,514L-697,526L-692,512L-684,522L-706,533L-738,532L-744,525Z" style="fill:rgb(215,0,15);"/>
                    <path d="M-652,448L-642,458L-636,446L-632,455L-623,444L-652,448Z" style="fill:rgb(215,0,15);"/>
                    <path d="M-671,523L-664,513L-662,522L-657,512L-652,520L-652,510L-647,513L-647,504L-640,509L-637,501L-632,508L-625,501L-622,508L-614,508L-619,516L-612,514L-611,519L-607,512L-599,519L-604,509L-597,510L-592,520L-602,526L-658,527L-671,523" style="fill:rgb(215,0,15);"/>
                    <path d="M-641,487L-647,476L-639,478L-638,465L-635,476L-627,478L-634,483L-623,489L-629,492L-632,496L-636,489L-641,497L-643,492L-648,487L-641,487Z" style="fill:rgb(215,0,15);"/>
                    <path d="M-554,465L-557,451L-566,460L-576,457L-577,465L-590,466L-582,474L-589,485L-580,489L-583,498L-570,497L-566,504L-559,497L-554,501L-551,491L-554,465Z" style="fill:rgb(215,0,15);"/>
                    <path d="M-516,440L-520,447L-514,451L-519,459L-513,461L-521,470L-513,468L-509,473L-509,463L-501,466L-505,457L-496,458L-500,450L-490,448L-494,441L-487,442L-489,438L-505,437L-516,440" style="fill:rgb(215,0,15);"/>
                    <path d="M-529,512L-526,500L-520,512L-516,504L-511,508L-493,502L-490,490L-486,509L-480,499L-474,509L-472,497L-461,507L-464,517C-464,517 -513.443,516.654 -515,517C-516.557,517.346 -529,512 -529,512Z" style="fill:rgb(215,0,15);"/>
                    <path d="M-795,557L-786,562L-784,551L-778,560L-775,555L-779,547L-793,550L-795,557Z" style="fill:rgb(215,0,15);"/>
                    <path d="M-766,574L-772,583L-761,586L-767,591L-756,596L-761,604L-751,608L-746,609L-760,571L-766,574Z" style="fill:rgb(215,0,15);"/>
                    <path d="M-812,599L-810,604L-808,606L-803,601L-801,612L-798,602L-793,606L-793,594L-785,601L-783,609L-797,616L-807,616L-813,605L-812,599Z" style="fill:rgb(215,0,15);"/>
                    <path d="M-720,547L-712,554L-709,547L-705,553L-702,547L-689,545L-679,544L-678,545L-674,552L-672,545L-668,552L-666,544L-664,548L-662,544L-662,537L-711,538L-720,547Z" style="fill:rgb(215,0,15);"/>
                    <path d="M-721,606L-717,597L-714,607L-710,599L-706,606L-693,606L-691,600L-689,605L-687,596L-683,605L-681,599L-677,601L-667,603L-663,595L-660,604L-657,595L-651,601L-652,607L-655,612L-705,614L-723,613L-721,606Z" style="fill:rgb(215,0,15);"/>
                    <path d="M-629,563L-632,555L-623,557L-620,550L-615,555L-607,551L-606,558L-597,560L-601,565L-594,571L-601,575L-601,585L-607,584L-612,591L-616,587L-622,591L-623,585L-634,587L-629,578L-635,575L-631,572L-638,566L-629,563Z" style="fill:rgb(215,0,15);"/>
                    <path d="M-575,598L-571,591L-567,598L-564,592L-561,597L-557,591L-553,597L-550,590L-545,596L-542,590L-537,595L-536,599L-567,600L-575,598Z" style="fill:rgb(215,0,15);"/>
                    <path d="M-563,538L-569,543L-563,546L-566,549L-563,551L-570,558L-562,561L-566,567L-562,569L-566,573L-561,576L-567,581L-560,583L-552,575L-563,538" style="fill:rgb(215,0,15);"/>
                    <path d="M-487,533L-493,540L-498,534L-502,539L-506,535L-508,539L-512,535L-517,542L-522,535L-524,541L-529,536L-532,538L-530,540L-525,544L-530,548L-525,552L-529,556L-520,564L-529,571L-523,574L-528,578L-521,582L-528,587L-522,589L-526,594L-526,596L-523,595L-519,590L-516,594L-514,590L-509,594L-505,584L-501,594L-497,589L-493,593L-489,587L-485,592L-482,594L-506,598L-530,601L-533,583L-535,553L-535,534L-493,528L-487,533Z" style="fill:rgb(215,0,15);"/>
                </g>
            </g>
        </g>
    </g>
</svg>
