<?xml version="1.0" encoding="UTF-8" standalone="no"?>
<!DOCTYPE svg PUBLIC "-//W3C//DTD SVG 1.1//EN" "http://www.w3.org/Graphics/SVG/1.1/DTD/svg11.dtd">
<svg width="100%" height="100%" viewBox="0 0 846 679" version="1.1" xmlns="http://www.w3.org/2000/svg" xmlns:xlink="http://www.w3.org/1999/xlink" xml:space="preserve" xmlns:serif="http://www.serif.com/" style="fill-rule:evenodd;clip-rule:evenodd;stroke-linejoin:round;stroke-miterlimit:2;">
    <g transform="matrix(1,0,0,1,-67.3794,-276)">
        <g id="Guacamole">
            <path d="M465,358C476.596,377.731 481,396.475 481,421C481,494.405 421.405,554 348,554C303.891,554 266.203,534.106 242,501L465,358Z" style="fill:rgb(142,79,57);"/>
            <clipPath id="_clip1">
                <path d="M465,358C476.596,377.731 481,396.475 481,421C481,494.405 421.405,554 348,554C303.891,554 266.203,534.106 242,501L465,358Z"/>
            </clipPath>
            <g clip-path="url(#_clip1)">
                <path d="M249.766,524.227C249.766,524.227 403.593,538.26 513.333,398.363C551.467,349.751 516.506,508.878 516.506,508.878L363.014,598.78L242.413,567.643L249.766,524.227Z" style="fill:rgb(112,55,35);"/>
                <path d="M323.27,517.856C323.27,517.856 281.581,510.593 281.581,488.665C281.581,466.738 250.882,470.246 241.673,472.878C232.463,475.509 214.483,468.931 209.659,480.771C204.835,492.612 197.818,505.33 202.203,511.031C206.589,516.732 228.955,532.52 233.34,534.274C237.726,536.028 323.27,517.856 323.27,517.856Z" style="fill:rgb(112,55,35);"/>
            </g>
            <g transform="matrix(0.937037,-0.594875,0.672323,1.05903,-256.387,213.067)">
                <ellipse cx="359.5" cy="406" rx="119.5" ry="35" style="fill:rgb(112,55,35);"/>
            </g>
            <path d="M260.325,509.175C253.032,504.926 247.111,497.176 245,490C243.339,484.353 239,487.712 206,493C169.218,498.894 113.79,481.426 110,451C101.986,408.346 166.654,416.922 190,435C201.466,443.879 256.643,438.875 243,431C231.883,428.009 199.126,416.004 186,401C160.816,372.214 205.294,351.249 233,363C299.251,410.212 345.883,380.869 337.887,365.639C333.801,357.396 313.218,340.457 327,323C340.268,307.599 364,352 379,353C394,359 427,345.552 449,356C466.513,364.318 460.306,389.503 460.306,389.503C446.844,412.387 416.426,441.195 376.972,466.242C331.165,495.323 285.953,511.224 260.325,509.175Z" style="fill:rgb(0,158,53);"/>
            <clipPath id="_clip2">
                <path d="M260.325,509.175C253.032,504.926 247.111,497.176 245,490C243.339,484.353 239,487.712 206,493C169.218,498.894 113.79,481.426 110,451C101.986,408.346 166.654,416.922 190,435C201.466,443.879 256.643,438.875 243,431C231.883,428.009 199.126,416.004 186,401C160.816,372.214 205.294,351.249 233,363C299.251,410.212 345.883,380.869 337.887,365.639C333.801,357.396 313.218,340.457 327,323C340.268,307.599 364,352 379,353C394,359 427,345.552 449,356C466.513,364.318 460.306,389.503 460.306,389.503C446.844,412.387 416.426,441.195 376.972,466.242C331.165,495.323 285.953,511.224 260.325,509.175Z"/>
            </clipPath>
            <g clip-path="url(#_clip2)">
                <path d="M99.706,427.738C99.706,427.738 147.771,468.085 206.01,464.927C232.674,462.822 241.796,451.946 257.233,465.278C272.67,478.61 387.745,433.001 407.392,413.354C427.039,393.707 457.562,365.289 464.228,368.096C470.894,370.902 476.858,408.793 476.858,408.793L442.827,471.242L377.921,505.975L282.844,522.465C282.844,522.465 200.397,520.71 197.239,520.36C194.082,520.009 137.948,514.045 137.948,514.045C137.948,514.045 88.479,473.347 88.479,469.839C88.479,466.33 99.706,427.738 99.706,427.738Z" style="fill:rgb(0,137,46);"/>
                <path d="M162.857,387.392C162.857,387.392 174.084,361.78 199.695,369.499C231.055,387.456 224.972,400.474 253.023,402.478C269.462,403.652 278.348,401.486 290.01,425.605C298.077,442.292 316.332,410.757 342.562,417.839C356.734,421.665 340.396,435.71 363.798,438.314C356.431,448.839 305.298,463.524 301.439,464.225C297.579,464.927 281.266,476.584 263.197,473.698C245.199,470.823 228.026,462.534 232.564,460.224C239.565,456.662 240.652,448.907 236.954,445.21C230.288,438.544 214.08,436.158 203.204,432.299C192.328,428.44 167.067,415.459 164.962,411.95C162.857,408.442 162.857,387.392 162.857,387.392Z" style="fill:rgb(0,137,46);"/>
                <path d="M329.857,354.764C329.857,354.764 310.911,338.274 331.962,340.379C353.012,342.484 360.029,353.36 361.783,358.623C363.537,363.885 362.344,372.606 367.562,380.538C375.474,386.314 398.562,383.21 393.145,395.871C386.83,399.73 374.189,410.44 363.313,410.44C352.437,410.44 344.241,401.074 334.067,396.163C323.892,391.251 316.875,387.743 316.525,384.585C316.174,381.427 329.857,354.764 329.857,354.764Z" style="fill:rgb(0,137,46);"/>
            </g>
            <path d="M251,312C242.395,322.196 212.937,310.006 221,294C229.063,277.994 232.606,292.718 245,294C266.976,296.273 253.084,310.069 251,312Z" style="fill:rgb(0,158,53);"/>
            <clipPath id="_clip3">
                <path d="M251,312C242.395,322.196 212.937,310.006 221,294C229.063,277.994 232.606,292.718 245,294C266.976,296.273 253.084,310.069 251,312Z"/>
            </clipPath>
            <g clip-path="url(#_clip3)">
                <path d="M216.388,304.77C218.841,299.32 218.023,291.417 228.378,296.594C238.734,301.772 240.369,307.495 245.274,306.405C250.179,305.315 256.174,298.775 263.259,303.952C270.344,309.13 274.159,313.217 271.979,317.85C269.799,322.482 240.369,333.928 233.556,330.93C226.743,327.933 213.936,310.22 216.388,304.77Z" style="fill:rgb(0,137,46);"/>
            </g>
            <path d="M124,366C99.125,369.797 40.08,303.198 82,288C124.809,271.486 113.046,315.623 121,342C123.239,349.41 135.503,362.304 124,366Z" style="fill:rgb(0,158,53);"/>
            <clipPath id="_clip4">
                <path d="M124,366C99.125,369.797 40.08,303.198 82,288C124.809,271.486 113.046,315.623 121,342C123.239,349.41 135.503,362.304 124,366Z"/>
            </clipPath>
            <g clip-path="url(#_clip4)">
                <path d="M48.577,311.795C48.577,311.795 62.415,293.699 81.043,296.893C99.671,300.086 109.251,307.005 108.187,322.44C107.122,337.875 104.994,353.309 117.767,360.229C130.541,367.148 147.572,382.05 147.572,382.05C147.572,382.05 98.607,412.388 86.898,406.533C75.188,400.678 44.319,394.824 38.996,383.115C33.674,371.405 48.577,311.795 48.577,311.795Z" style="fill:rgb(0,137,46);"/>
            </g>
        </g>
        <g id="Doritos" transform="matrix(1,0,0,1,-159,250)">
            <path d="M376,283L389,267L403,285L376,283Z" style="fill:rgb(187,157,64);"/>
            <path d="M420,322L452,251L531,319L420,322Z" style="fill:rgb(216,175,48);"/>
            <path d="M514,278L526,251L541,279L514,278Z" style="fill:rgb(216,175,48);"/>
            <path d="M580,357L580,374L604,360L580,357Z" style="fill:rgb(187,157,64);"/>
            <path d="M504.992,419.983L522,466L591,400L504.992,419.983Z" style="fill:rgb(187,157,64);"/>
            <path d="M477,452L501,442L494,464L477,452Z" style="fill:rgb(216,175,48);"/>
        </g>
        <g id="Marteau">
            <g transform="matrix(0.997017,0.077178,-0.077178,0.997017,39.6355,-52.6444)">
                <path d="M684,384C684,384 604.297,445.105 585.053,457.421C563.615,467.088 598.303,510.215 614,492C643,462 694,408 694,408L684,384Z" style="fill:rgb(199,132,109);"/>
                <clipPath id="_clip5">
                    <path d="M684,384C684,384 604.297,445.105 585.053,457.421C563.615,467.088 598.303,510.215 614,492C643,462 694,408 694,408L684,384Z"/>
                </clipPath>
                <g clip-path="url(#_clip5)">
                    <g transform="matrix(0.997017,-0.077178,0.077178,0.997017,-35.4543,55.5464)">
                        <path d="M580.095,458.021C591.665,462.889 607.566,463.291 633,445C658.434,426.709 671.751,413.88 672,405C672.249,396.12 670,381 670,381L693,373L725,392C725,392 732.165,426.002 730,428C727.835,429.998 681.422,464.203 677,467C672.578,469.797 629.062,502.707 625,505C620.938,507.293 565.99,491.073 566,488C566.01,484.927 565.235,451.507 580.095,458.021Z" style="fill:rgb(163,92,67);"/>
                    </g>
                </g>
            </g>
            <g>
                <g transform="matrix(0.579614,-0.440658,0.379688,0.499418,100.957,437.172)">
                    <ellipse cx="760" cy="422" rx="65" ry="47" style="fill:rgb(200,75,49);"/>
                </g>
                <path d="M660.89,335.301L701.247,464.521L815.618,392.823L740.213,285.621L660.89,335.301Z" style="fill:rgb(200,75,49);"/>
                <clipPath id="_clip6">
                    <path d="M660.89,335.301L701.247,464.521L815.618,392.823L740.213,285.621L660.89,335.301Z"/>
                </clipPath>
                <g clip-path="url(#_clip6)">
                    <path d="M655.745,341.638C655.745,341.638 701.793,413.998 707.933,406.981C720.212,389.878 776.627,355.373 810.395,385.633C824.868,402.298 840.813,420.138 840.813,420.138L812.308,472.764L693.461,506.532C693.461,506.532 657.5,425.839 656.184,421.892C654.868,417.945 655.745,341.638 655.745,341.638Z" style="fill:rgb(152,59,39);"/>
                </g>
            </g>
            <path d="M755.085,386.182L748,362L763,377L762,369L774,381L755.085,386.182Z" style="fill:rgb(199,132,109);"/>
            <clipPath id="_clip7">
                <path d="M755.085,386.182L748,362L763,377L762,369L774,381L755.085,386.182Z"/>
            </clipPath>
            <g clip-path="url(#_clip7)">
                <path d="M747.559,361.574L762,381.156L763,377L750.388,358.001L747.559,361.574Z" style="fill:rgb(163,92,67);"/>
                <path d="M775.039,380.979L763.893,364.901L761.559,368.53L771.707,384.263L775.039,380.979Z" style="fill:rgb(163,92,67);"/>
            </g>
            <g transform="matrix(0.835441,-0.635153,0.547272,0.719848,-105.79,611.309)">
                <ellipse cx="760" cy="422" rx="65" ry="47" style="fill:rgb(199,132,109);"/>
                <clipPath id="_clip8">
                    <ellipse cx="760" cy="422" rx="65" ry="47"/>
                </clipPath>
                <g clip-path="url(#_clip8)">
                    <g transform="matrix(0.742742,-0.0109183,0.00977049,0.895256,227.171,99.2517)">
                        <ellipse cx="713.978" cy="381.755" rx="75.444" ry="50.159" style="fill:rgb(163,92,67);"/>
                    </g>
                </g>
            </g>
        </g>
        <g id="Citron">
            <g transform="matrix(1,0,0,1,59,-34)">
                <circle cx="389" cy="868" r="121" style="fill:rgb(203,255,221);"/>
            </g>
            <g transform="matrix(1,0,0,1,-1.52471,0.0368483)">
                <path d="M448,826C437.074,810.5 408.585,746.532 405.525,731.963C414.831,722.92 470.593,714.681 491.525,730.963C496.225,729.138 458.792,818.93 448,826Z" style="fill:rgb(116,231,157);"/>
            </g>
            <g transform="matrix(-0.933967,-0.35736,0.35736,-0.933967,568.361,1773.55)">
                <path d="M448,826C437.074,810.5 415.585,744.096 412.525,729.527C421.831,720.484 468.122,715.193 489.054,731.475C481.42,741.984 458.792,818.93 448,826Z" style="fill:rgb(116,231,157);"/>
            </g>
            <g transform="matrix(0.67568,0.737195,-0.737195,0.67568,761.219,-59.0377)">
                <path d="M448,826C440.712,820.526 411.724,742.561 412.525,729.527C413.092,720.282 488.655,720.402 492.589,733.932C484.955,744.442 458.792,818.93 448,826Z" style="fill:rgb(116,231,157);"/>
            </g>
            <g transform="matrix(-0.253348,-0.967375,0.967375,-0.253348,-244.426,1480.42)">
                <path d="M448,826C442.211,807.765 394.078,737.051 404.942,732.928C414.248,723.885 468.908,716.139 489.84,732.421C481.71,743.73 457.717,815.248 448,826Z" style="fill:rgb(116,231,157);"/>
            </g>
            <g transform="matrix(-0.14549,0.98936,-0.98936,-0.14549,1338.37,514.004)">
                <path d="M447.644,824.005C436.718,808.505 400.592,730.86 406.528,729.987C415.834,720.944 468.122,715.193 489.054,731.475C481.42,741.984 458.436,816.935 447.644,824.005Z" style="fill:rgb(116,231,157);"/>
            </g>
            <g transform="matrix(0.571597,-0.820534,0.820534,0.571597,-492.202,724.352)">
                <path d="M448,826C428.769,801.454 402.355,744.093 407.831,731.995C417.137,722.952 468.122,715.193 489.054,731.475C504.236,733.306 460.391,803.386 448,826Z" style="fill:rgb(116,231,157);"/>
            </g>
            <g transform="matrix(-0.864703,0.502283,-0.502283,-0.864703,1253.37,1330.22)">
                <path d="M447.496,821.081C436.57,805.581 397.918,735.565 404.941,735.069C401.959,728.322 463.998,707.624 489.054,731.475C492.087,734.362 458.288,814.011 447.496,821.081Z" style="fill:rgb(116,231,157);"/>
            </g>
        </g>
        <g id="Citron1" serif:id="Citron" transform="matrix(0.495052,-0.155937,-0.172045,0.317108,703.129,339.154)">
            <g transform="matrix(2.43635,1.19807,1.32182,3.8035,-2161.37,-2132.37)">
                <path d="M803,554C789.859,563.177 738.904,591.493 719,573C713.176,565.907 711.704,560.02 712.584,550.977C718.791,496.489 725.039,480.878 744,465C746.249,463.611 747.459,450.81 760,457C801.865,451.808 822.114,474.694 840,488C864.815,508.932 819.379,544.409 803,554Z" style="fill:rgb(36,158,77);"/>
                <clipPath id="_clip9">
                    <path d="M803,554C789.859,563.177 738.904,591.493 719,573C713.176,565.907 711.704,560.02 712.584,550.977C718.791,496.489 725.039,480.878 744,465C746.249,463.611 747.459,450.81 760,457C801.865,451.808 822.114,474.694 840,488C864.815,508.932 819.379,544.409 803,554Z"/>
                </clipPath>
                <g clip-path="url(#_clip9)">
                    <path d="M707.121,472.033C707.121,472.033 700.104,492.803 776.727,493.645C798.9,496.451 785.989,496.451 774.482,503.187C758.203,513.572 711.05,539.457 713.296,566.9C715.541,594.343 762.974,597.43 762.974,597.43C762.974,597.43 829.213,569.643 834.265,566.275C839.317,562.907 865.42,516.316 865.42,512.948C865.42,509.58 865.7,472.531 856.157,466.637C846.615,460.743 832.02,456.533 815.46,448.113C798.9,439.693 782.06,437.166 773.359,436.605C764.658,436.044 717.786,452.042 717.786,452.042L707.121,472.033Z" style="fill:rgb(47,132,75);"/>
                </g>
            </g>
            <g transform="matrix(1,0,0,1,59,-34)">
                <circle cx="389" cy="868" r="121" style="fill:rgb(203,255,221);"/>
            </g>
            <g transform="matrix(1,0,0,1,-1.52471,0.0368483)">
                <path d="M448,826C437.074,810.5 408.585,746.532 405.525,731.963C414.831,722.92 470.593,714.681 491.525,730.963C496.225,729.138 458.792,818.93 448,826Z" style="fill:rgb(116,231,157);"/>
            </g>
            <g transform="matrix(-0.933967,-0.35736,0.35736,-0.933967,568.361,1773.55)">
                <path d="M448,826C437.074,810.5 415.585,744.096 412.525,729.527C421.831,720.484 468.122,715.193 489.054,731.475C481.42,741.984 458.792,818.93 448,826Z" style="fill:rgb(116,231,157);"/>
            </g>
            <g transform="matrix(0.67568,0.737195,-0.737195,0.67568,761.219,-59.0377)">
                <path d="M448,826C440.712,820.526 411.724,742.561 412.525,729.527C413.092,720.282 488.655,720.402 492.589,733.932C484.955,744.442 458.792,818.93 448,826Z" style="fill:rgb(116,231,157);"/>
            </g>
            <g transform="matrix(-0.253348,-0.967375,0.967375,-0.253348,-244.426,1480.42)">
                <path d="M448,826C442.211,807.765 394.078,737.051 404.942,732.928C414.248,723.885 468.908,716.139 489.84,732.421C481.71,743.73 457.717,815.248 448,826Z" style="fill:rgb(116,231,157);"/>
            </g>
            <g transform="matrix(-0.14549,0.98936,-0.98936,-0.14549,1338.37,514.004)">
                <path d="M447.644,824.005C436.718,808.505 400.592,730.86 406.528,729.987C415.834,720.944 468.122,715.193 489.054,731.475C481.42,741.984 458.436,816.935 447.644,824.005Z" style="fill:rgb(116,231,157);"/>
            </g>
            <g transform="matrix(0.571597,-0.820534,0.820534,0.571597,-492.202,724.352)">
                <path d="M448,826C428.769,801.454 402.355,744.093 407.831,731.995C417.137,722.952 468.122,715.193 489.054,731.475C504.236,733.306 460.391,803.386 448,826Z" style="fill:rgb(116,231,157);"/>
            </g>
            <g transform="matrix(-0.864703,0.502283,-0.502283,-0.864703,1253.37,1330.22)">
                <path d="M447.496,821.081C436.57,805.581 397.918,735.565 404.941,735.069C401.959,728.322 463.998,707.624 489.054,731.475C492.087,734.362 458.288,814.011 447.496,821.081Z" style="fill:rgb(116,231,157);"/>
            </g>
            <g transform="matrix(2.43635,1.19807,1.32182,3.8035,-2161.37,-2132.37)">
                <path d="M817,487C817,487 845.678,434.882 851,427C851.799,434.33 844.912,439.503 850,440C842,441 816.737,487.044 817,487Z" style="fill:rgb(203,255,221);"/>
            </g>
            <g transform="matrix(2.43635,1.19807,1.32182,3.8035,-2161.37,-2132.37)">
                <path d="M886,400C886,400 894.153,384.429 896,388C894.558,393.627 897.965,395.728 894,394C890.035,392.272 886,400 886,400Z" style="fill:rgb(203,255,221);"/>
            </g>
            <g transform="matrix(2.43635,1.19807,1.32182,3.8035,-2161.37,-2132.37)">
                <path d="M842,497C842,497 910.987,415.128 913,420C913.368,425.53 904.775,437.866 902,434C895,434 842,497 842,497Z" style="fill:rgb(203,255,221);"/>
            </g>
            <g transform="matrix(2.43635,1.19807,1.32182,3.8035,-2161.37,-2132.37)">
                <path d="M729,548C729,548 619.614,545.234 617,551C619.32,556.108 624.431,556.55 625,556C625.24,555.45 640.563,551.536 638,553C635.437,554.464 624.181,557.314 628,560C672,545 729,548 729,548Z" style="fill:rgb(203,255,221);"/>
            </g>
            <g transform="matrix(2.43635,1.19807,1.32182,3.8035,-2161.37,-2132.37)">
                <path d="M736,589C736,589 695.083,628.072 697,636C698.917,639.981 703.242,646.189 707,637C707,620 736,589 736,589Z" style="fill:rgb(203,255,221);"/>
            </g>
            <g transform="matrix(2.43635,1.19807,1.32182,3.8035,-2161.37,-2132.37)">
                <path d="M840,515C843.31,514.007 879.958,505.372 884,499C891.66,502.824 891.221,511.584 887,510C882.779,508.416 862.387,512.034 862.387,512.034C862.387,512.034 836.69,515.993 840,515Z" style="fill:rgb(203,255,221);"/>
            </g>
        </g>
        <g id="taupe" transform="matrix(1,0,0,1,-105.755,7.04825)">
            <path d="M618,659C618,659 606.703,653.292 606,657C605.297,660.708 604,662 604,662C604,662 575.859,675.084 579,680C580.826,684.389 589,684 589,684C589,684 596.281,686.665 595,695C598.455,701.493 590.126,706.35 606,708C621.874,709.65 638.392,708.875 645,704C651.608,699.125 659.974,691.665 670,695C683.184,697.809 688.344,698.085 693,694C697.656,689.915 697.503,684.19 701,686C704.76,688.6 721.874,692.821 727,689C730.547,683.337 735.401,684.767 736,678C740.02,675.706 744.877,668.767 751,670C753.966,666.76 752.244,666.082 751,663C749.756,659.918 752.666,662.555 752,659C751.334,655.445 743.032,651.976 736,652C728.968,652.024 708.555,654.555 706,655C703.445,655.445 666.603,654.818 662,655C657.397,655.182 618,659 618,659Z" style="fill:rgb(142,79,57);"/>
            <clipPath id="_clip10">
                <path d="M618,659C618,659 606.703,653.292 606,657C605.297,660.708 604,662 604,662C604,662 575.859,675.084 579,680C580.826,684.389 589,684 589,684C589,684 596.281,686.665 595,695C598.455,701.493 590.126,706.35 606,708C621.874,709.65 638.392,708.875 645,704C651.608,699.125 659.974,691.665 670,695C683.184,697.809 688.344,698.085 693,694C697.656,689.915 697.503,684.19 701,686C704.76,688.6 721.874,692.821 727,689C730.547,683.337 735.401,684.767 736,678C740.02,675.706 744.877,668.767 751,670C753.966,666.76 752.244,666.082 751,663C749.756,659.918 752.666,662.555 752,659C751.334,655.445 743.032,651.976 736,652C728.968,652.024 708.555,654.555 706,655C703.445,655.445 666.603,654.818 662,655C657.397,655.182 618,659 618,659Z"/>
            </clipPath>
            <g clip-path="url(#_clip10)">
                <g transform="matrix(1,0,0,1,105.755,-7.04825)">
                    <path d="M510.739,679.9C510.739,679.9 491.653,686.636 485.591,703.027C479.528,719.418 496.368,725.256 502.88,727.053C509.392,728.849 537.234,730.196 546.665,729.298C556.095,728.4 579.672,723.011 587.081,721.888C594.491,720.766 660.056,696.669 660.056,683.87C660.056,671.071 657.811,666.581 652.197,663.662C646.584,660.743 638.5,657.824 635.581,658.273C632.662,658.722 627.947,657.824 619.415,659.396C610.882,660.967 606.167,661.865 595.389,663.437C584.611,665.009 582.591,668.152 572.711,667.928C562.831,667.703 559.014,670.847 548.91,671.521C538.806,672.194 510.739,679.9 510.739,679.9Z" style="fill:rgb(94,59,48);"/>
                </g>
            </g>
            <path d="M704,651C704,651 723.614,640.135 743,652C747,661 741.526,656.894 734,656C724.284,656.024 715.402,655.925 731,662C724.495,663.076 726.398,661.45 719,662C711.602,662.55 705,665 705,665L704,651Z" style="fill:rgb(191,160,171);"/>
            <clipPath id="_clip11">
                <path d="M704,651C704,651 723.614,640.135 743,652C747,661 741.526,656.894 734,656C724.284,656.024 715.402,655.925 731,662C724.495,663.076 726.398,661.45 719,662C711.602,662.55 705,665 705,665L704,651Z"/>
            </clipPath>
            <g clip-path="url(#_clip11)">
                <g transform="matrix(1,0,0,1,105.755,-7.04825)">
                    <path d="M593.671,664.421C593.671,664.421 614.688,652.386 627.082,657.415C639.476,662.445 647.201,674.121 647.201,674.121L608.76,680.588L594.749,674.48L593.671,664.421Z" style="fill:rgb(147,108,122);"/>
                </g>
            </g>
            <path d="M613,677C613,677 604.975,603.225 645,601C655.818,600.617 691,601 711,661C714.057,671.486 698.632,674.527 698.632,674.527L631,689C631,689 611.757,690.232 613,677Z" style="fill:rgb(60,49,41);"/>
            <clipPath id="_clip12">
                <path d="M613,677C613,677 604.975,603.225 645,601C655.818,600.617 691,601 711,661C714.057,671.486 698.632,674.527 698.632,674.527L631,689C631,689 611.757,690.232 613,677Z"/>
            </clipPath>
            <g clip-path="url(#_clip12)">
                <g transform="matrix(1,0,0,1,105.755,-7.04825)">
                    <path d="M536.299,649.979C534.323,667.224 502.349,671.355 502.349,671.355L499.475,695.246L516.899,703.509L535.94,700.096L607.073,688.061C607.073,688.061 611.966,661.318 602.223,644.95C579.866,607.39 544.134,635.143 544.134,635.143C544.134,635.143 540.898,635.07 536.299,649.979Z" style="fill:rgb(44,32,24);"/>
                </g>
            </g>
            <path d="M645,643C645,643 659.132,595.225 668,597C675.931,599.058 687.307,628.831 691.462,643.579C691.953,645.322 645,643 645,643Z" style="fill:rgb(60,49,41);"/>
            <clipPath id="_clip13">
                <path d="M645,643C645,643 659.132,595.225 668,597C675.931,599.058 687.307,628.831 691.462,643.579C691.953,645.322 645,643 645,643Z"/>
            </clipPath>
            <g clip-path="url(#_clip13)">
                <g transform="matrix(1,0,0,1,105.755,-7.04825)">
                    <path d="M533.066,628.783C533.066,628.783 556.238,644.77 562.166,636.327C565.938,633.274 557.316,587.648 568.273,587.648C579.231,587.648 603.84,643.692 603.84,643.692L597.912,666.505C597.912,666.505 560.729,669.918 558.034,669.2C555.34,668.481 530.91,650.518 530.91,650.518L533.066,628.783Z" style="fill:rgb(44,32,24);"/>
                </g>
                <path d="M648,615C660.554,622.193 671.82,628.436 695,614C679.237,589.302 659,584 659,584C659,584 640.708,608.859 648,615Z" style="fill:rgb(191,160,171);"/>
                <clipPath id="_clip14">
                    <path d="M648,615C660.554,622.193 671.82,628.436 695,614C679.237,589.302 659,584 659,584C659,584 640.708,608.859 648,615Z"/>
                </clipPath>
                <g clip-path="url(#_clip14)">
                    <g transform="matrix(1,0,0,1,105.755,-7.04825)">
                        <path d="M533.066,628.783C533.066,628.783 556.238,644.77 562.166,636.327C565.938,633.274 557.316,587.648 568.273,587.648C579.231,587.648 603.84,643.692 603.84,643.692L597.912,666.505C597.912,666.505 560.729,669.918 558.034,669.2C555.34,668.481 530.91,650.518 530.91,650.518L533.066,628.783Z" style="fill:rgb(147,108,122);"/>
                    </g>
                </g>
            </g>
            <path d="M622,668C615.789,667.641 597.752,665.247 587,697C590.457,700.598 589.861,696.347 602,689C605.192,691.915 603.43,700.406 606,700C611.772,699.412 625.842,683.368 625.842,683.368C625.842,683.368 630.14,672.303 622,668Z" style="fill:rgb(191,160,171);"/>
            <clipPath id="_clip15">
                <path d="M622,668C615.789,667.641 597.752,665.247 587,697C590.457,700.598 589.861,696.347 602,689C605.192,691.915 603.43,700.406 606,700C611.772,699.412 625.842,683.368 625.842,683.368C625.842,683.368 630.14,672.303 622,668Z"/>
            </clipPath>
            <g clip-path="url(#_clip15)">
                <g transform="matrix(1,0,0,1,105.755,-7.04825)">
                    <path d="M478.349,708.789C478.349,708.789 494.336,684.719 499.006,691.186C501.88,697.832 505.113,696.215 509.245,691.006C513.376,685.797 514.993,674.301 516.789,671.067C518.586,667.834 540.321,690.288 540.321,690.288L531.16,707.173L507.628,715.975L484.456,716.334L478.349,708.789Z" style="fill:rgb(147,108,122);"/>
                </g>
            </g>
        </g>
    </g>
</svg>
